<?xml version="1.0" encoding="UTF-8"?>
<svg width="600" height="400" viewBox="0 0 600 400" fill="none" xmlns="http://www.w3.org/2000/svg">
  <!-- Fond décoratif -->
  <circle cx="300" cy="200" r="180" fill="#EBEFFF"/>
  
  <!-- Éléments décoratifs -->
  <circle cx="180" cy="140" r="20" fill="#4A6CF7" opacity="0.2"/>
  <circle cx="420" cy="240" r="30" fill="#4A6CF7" opacity="0.2"/>
  <circle cx="320" cy="100" r="15" fill="#4A6CF7" opacity="0.2"/>
  <circle cx="260" cy="320" r="25" fill="#4A6CF7" opacity="0.2"/>
  
  <!-- Appareil principal (smartphone/tablette) -->
  <rect x="220" y="100" width="160" height="240" rx="12" fill="white" stroke="#E2E8F0" stroke-width="3"/>
  <rect x="230" y="110" width="140" height="220" rx="6" fill="#F8F9FA"/>
  
  <!-- Éléments d'interface sur l'appareil -->
  <!-- En-tête -->
  <rect x="240" y="130" width="120" height="10" rx="5" fill="#4A6CF7"/>
  <rect x="240" y="150" width="80" height="8" rx="4" fill="#CBD5E0"/>
  
  <!-- Avatar utilisateur -->
  <circle cx="270" cy="190" r="20" fill="#4A6CF7"/>
  <circle cx="270" cy="182" r="6" fill="white"/>
  <path d="M256 202C256 194.82 262.82 188 270 188C277.18 188 284 194.82 284 202" fill="#4A6CF7"/>
  <path d="M256 202C256 194.82 262.82 188 270 188C277.18 188 284 194.82 284 202" stroke="white" stroke-width="2"/>
  
  <!-- Informations de profil -->
  <rect x="300" y="180" width="60" height="8" rx="4" fill="#4A6CF7"/>
  <rect x="300" y="195" width="40" height="8" rx="4" fill="#CBD5E0"/>
  
  <!-- Éléments de navigation -->
  <rect x="240" y="230" width="120" height="1" fill="#E2E8F0"/>
  
  <!-- Icônes de navigation -->
  <rect x="250" y="250" width="20" height="20" rx="4" fill="#4A6CF7"/>
  <rect x="290" y="250" width="20" height="20" rx="4" fill="#CBD5E0"/>
  <rect x="330" y="250" width="20" height="20" rx="4" fill="#CBD5E0"/>
  
  <!-- Texte de navigation -->
  <rect x="250" y="280" width="20" height="4" rx="2" fill="#4A6CF7"/>
  <rect x="290" y="280" width="20" height="4" rx="2" fill="#CBD5E0"/>
  <rect x="330" y="280" width="20" height="4" rx="2" fill="#CBD5E0"/>
  
  <!-- Bouton d'action -->
  <rect x="260" y="310" width="80" height="10" rx="5" fill="#4A6CF7"/>
  
  <!-- Éléments graphiques décoratifs -->
  <path d="M450 150C450 144.477 454.477 140 460 140H500C505.523 140 510 144.477 510 150V190C510 195.523 505.523 200 500 200H460C454.477 200 450 195.523 450 190V150Z" fill="white" stroke="#E2E8F0" stroke-width="2"/>
  <circle cx="480" cy="170" r="15" fill="#4A6CF7"/>
  
  <path d="M150 250C150 244.477 154.477 240 160 240H200C205.523 240 210 244.477 210 250V290C210 295.523 205.523 300 200 300H160C154.477 300 150 295.523 150 290V250Z" fill="white" stroke="#E2E8F0" stroke-width="2"/>
  <rect x="160" y="260" width="40" height="6" rx="3" fill="#4A6CF7"/>
  <rect x="160" y="275" width="30" height="6" rx="3" fill="#CBD5E0"/>
  
  <!-- Lignes de connexion -->
  <path d="M210 270L220 200" stroke="#E2E8F0" stroke-width="2" stroke-dasharray="4 4"/>
  <path d="M450 170L380 170" stroke="#E2E8F0" stroke-width="2" stroke-dasharray="4 4"/>
</svg> 