<?xml version="1.0" encoding="UTF-8"?>
<svg width="64" height="64" viewBox="0 0 64 64" fill="none" xmlns="http://www.w3.org/2000/svg">
  <circle cx="32" cy="32" r="32" fill="#EBEFFF"/>
  <path d="M32 18C28.7 18 26 20.7 26 24C26 27.3 28.7 30 32 30C35.3 30 38 27.3 38 24C38 20.7 35.3 18 32 18ZM32 22C33.1 22 34 22.9 34 24C34 25.1 33.1 26 32 26C30.9 26 30 25.1 30 24C30 22.9 30.9 22 32 22Z" fill="#4A6CF7"/>
  <path d="M32 32C25.4 32 20 37.4 20 44V46H44V44C44 37.4 38.6 32 32 32ZM24.2 42C25.1 38.4 28.3 36 32 36C35.7 36 38.9 38.4 39.8 42H24.2Z" fill="#4A6CF7"/>
</svg> 