<?xml version="1.0" encoding="UTF-8"?>
<svg width="64" height="64" viewBox="0 0 64 64" fill="none" xmlns="http://www.w3.org/2000/svg">
  <circle cx="32" cy="32" r="32" fill="#EBEFFF"/>
  <path d="M32 16C28.93 16 26 17.036 23.532 18.964C21.064 20.893 19.184 23.607 18.19 26.705L18 27.333V38C18 41.183 19.264 44.235 21.515 46.485C23.765 48.736 26.817 50 30 50H34C37.183 50 40.235 48.736 42.485 46.485C44.736 44.235 46 41.183 46 38V27.333L45.81 26.705C44.816 23.607 42.936 20.893 40.468 18.964C38 17.036 35.07 16 32 16ZM32 20C34.121 20 36.178 20.703 37.873 22.014C39.567 23.325 40.806 25.173 41.403 27.267L41.6 28H22.4L22.597 27.267C23.194 25.173 24.433 23.325 26.127 22.014C27.822 20.703 29.879 20 32 20ZM42 32V38C42 39.857 41.259 41.637 39.941 42.95C38.623 44.262 36.839 45 35 45H29C27.144 45 25.363 44.26 24.05 42.942C22.738 41.623 22 39.847 22 38V32H42Z" fill="#4A6CF7"/>
  <path d="M32 36C33.1046 36 34 36.8954 34 38C34 39.1046 33.1046 40 32 40C30.8954 40 30 39.1046 30 38C30 36.8954 30.8954 36 32 36Z" fill="#4A6CF7"/>
</svg> 