<?xml version="1.0" encoding="UTF-8"?>
<svg width="160" height="40" viewBox="0 0 160 40" fill="none" xmlns="http://www.w3.org/2000/svg">
  <path d="M20 0C8.954 0 0 8.954 0 20C0 31.046 8.954 40 20 40C31.046 40 40 31.046 40 20C40 8.954 31.046 0 20 0ZM20 7C23.866 7 27 10.134 27 14C27 17.866 23.866 21 20 21C16.134 21 13 17.866 13 14C13 10.134 16.134 7 20 7ZM20 34.4C15.5 34.4 11.51 32.22 9 28.78C9.05 24.39 17.5 22 20 22C22.485 22 30.95 24.39 31 28.78C28.49 32.22 24.5 34.4 20 34.4Z" fill="#4A6CF7"/>
</svg> 